<?xml version="1.0" encoding="utf-8"?>
<!-- Generator: Adobe Illustrator 26.0.1, SVG Export Plug-In . SVG Version: 6.00 Build 0)  -->
<svg version="1.1" id="Layer_1" xmlns="http://www.w3.org/2000/svg" xmlns:xlink="http://www.w3.org/1999/xlink" x="0px" y="0px"
	 viewBox="0 0 768.52 495.93" style="enable-background:new 0 0 768.52 495.93;" xml:space="preserve">
<style type="text/css">
	.st0{fill:#20232D;}
	.st1{fill:#FFFFFF;}
	.st2{fill:#1585FF;}
	.st3{fill:#F2142F;}
</style>
<rect x="49.25" y="334.1" class="st0" width="651.75" height="88.08"/>
<g>
	<path class="st0" d="M179.67,279.92c2.13-3.63,5.02-6.47,8.68-8.51c3.66-2.04,7.66-3.06,12.01-3.06c4.98,0,9.41,1.22,13.29,3.67
		c3.88,2.45,6.7,5.91,8.45,10.4h-9.22c-1.21-2.47-2.89-4.31-5.05-5.52c-2.15-1.21-4.64-1.82-7.47-1.82c-3.1,0-5.86,0.7-8.28,2.09
		c-2.42,1.39-4.32,3.39-5.69,5.99c-1.37,2.6-2.05,5.63-2.05,9.09c0,3.46,0.68,6.48,2.05,9.09c1.37,2.6,3.26,4.61,5.69,6.02
		c2.42,1.41,5.18,2.12,8.28,2.12c2.83,0,5.32-0.61,7.47-1.82c2.15-1.21,3.84-3.05,5.05-5.52h9.22c-1.75,4.49-4.57,7.94-8.45,10.37
		c-3.88,2.42-8.31,3.63-13.29,3.63c-4.4,0-8.41-1.02-12.05-3.06c-3.63-2.04-6.52-4.88-8.65-8.51c-2.13-3.63-3.2-7.74-3.2-12.32
		C176.47,287.66,177.53,283.55,179.67,279.92z"/>
	<path class="st0" d="M257.84,313.94c-2.83-1.59-5.05-3.84-6.66-6.73c-1.62-2.89-2.42-6.25-2.42-10.06c0-3.77,0.83-7.11,2.49-10.03
		c1.66-2.92,3.93-5.16,6.8-6.73c2.87-1.57,6.08-2.36,9.62-2.36c3.54,0,6.75,0.79,9.62,2.36c2.87,1.57,5.14,3.81,6.8,6.73
		c1.66,2.92,2.49,6.26,2.49,10.03c0,3.77-0.85,7.11-2.56,10.03c-1.71,2.92-4.03,5.17-6.97,6.76c-2.94,1.59-6.18,2.39-9.73,2.39
		C263.83,316.33,260.67,315.53,257.84,313.94z M272.89,308.25c1.73-0.94,3.13-2.36,4.21-4.24c1.08-1.88,1.62-4.17,1.62-6.87
		c0-2.69-0.52-4.97-1.55-6.83c-1.03-1.86-2.4-3.26-4.11-4.21c-1.71-0.94-3.55-1.41-5.52-1.41c-1.97,0-3.8,0.47-5.49,1.41
		c-1.68,0.94-3.02,2.35-4,4.21c-0.99,1.86-1.48,4.14-1.48,6.83c0,3.99,1.02,7.08,3.06,9.25c2.04,2.18,4.61,3.26,7.71,3.26
		C269.31,309.67,271.16,309.19,272.89,308.25z"/>
	<path class="st0" d="M320.97,313.94c-2.83-1.59-5.05-3.84-6.66-6.73c-1.62-2.89-2.42-6.25-2.42-10.06c0-3.77,0.83-7.11,2.49-10.03
		c1.66-2.92,3.93-5.16,6.8-6.73c2.87-1.57,6.08-2.36,9.62-2.36c3.54,0,6.75,0.79,9.62,2.36c2.87,1.57,5.14,3.81,6.8,6.73
		c1.66,2.92,2.49,6.26,2.49,10.03c0,3.77-0.85,7.11-2.56,10.03c-1.71,2.92-4.03,5.17-6.97,6.76c-2.94,1.59-6.18,2.39-9.73,2.39
		C326.96,316.33,323.8,315.53,320.97,313.94z M336.02,308.25c1.73-0.94,3.13-2.36,4.21-4.24c1.08-1.88,1.62-4.17,1.62-6.87
		c0-2.69-0.52-4.97-1.55-6.83c-1.03-1.86-2.4-3.26-4.11-4.21c-1.71-0.94-3.55-1.41-5.52-1.41c-1.97,0-3.8,0.47-5.49,1.41
		c-1.68,0.94-3.02,2.35-4,4.21c-0.99,1.86-1.48,4.14-1.48,6.83c0,3.99,1.02,7.08,3.06,9.25c2.04,2.18,4.61,3.26,7.71,3.26
		C332.44,309.67,334.29,309.19,336.02,308.25z"/>
	<path class="st0" d="M385.18,265.92v49.81h-7.67v-49.81H385.18z"/>
	<path class="st0" d="M484.19,289.61c-1.12,2.11-2.92,3.83-5.38,5.15c-2.47,1.32-5.63,1.99-9.49,1.99h-8.48v18.98h-7.67v-46.78
		h16.15c3.59,0,6.63,0.62,9.12,1.85c2.49,1.23,4.35,2.91,5.59,5.01c1.23,2.11,1.85,4.47,1.85,7.07
		C485.87,285.26,485.31,287.5,484.19,289.61z M475.84,288.5c1.44-1.32,2.15-3.2,2.15-5.62c0-5.12-2.89-7.67-8.68-7.67h-8.48v15.28
		h8.48C472.23,290.48,474.41,289.82,475.84,288.5z"/>
	<path class="st0" d="M520,313.94c-2.83-1.59-5.05-3.84-6.66-6.73c-1.62-2.89-2.42-6.25-2.42-10.06c0-3.77,0.83-7.11,2.49-10.03
		c1.66-2.92,3.93-5.16,6.8-6.73c2.87-1.57,6.08-2.36,9.62-2.36c3.54,0,6.75,0.79,9.62,2.36c2.87,1.57,5.14,3.81,6.8,6.73
		c1.66,2.92,2.49,6.26,2.49,10.03c0,3.77-0.85,7.11-2.56,10.03c-1.71,2.92-4.03,5.17-6.97,6.76c-2.94,1.59-6.18,2.39-9.73,2.39
		C525.99,316.33,522.82,315.53,520,313.94z M535.04,308.25c1.73-0.94,3.13-2.36,4.21-4.24c1.08-1.88,1.62-4.17,1.62-6.87
		c0-2.69-0.52-4.97-1.55-6.83c-1.03-1.86-2.4-3.26-4.11-4.21c-1.71-0.94-3.54-1.41-5.52-1.41s-3.8,0.47-5.49,1.41
		c-1.68,0.94-3.02,2.35-4,4.21c-0.99,1.86-1.48,4.14-1.48,6.83c0,3.99,1.02,7.08,3.06,9.25c2.04,2.18,4.61,3.26,7.71,3.26
		C531.46,309.67,533.31,309.19,535.04,308.25z"/>
	<path class="st0" d="M576.94,272.31c-0.94-0.94-1.41-2.11-1.41-3.5s0.47-2.56,1.41-3.5s2.11-1.41,3.5-1.41
		c1.35,0,2.49,0.47,3.43,1.41s1.41,2.11,1.41,3.5s-0.47,2.56-1.41,3.5c-0.94,0.94-2.09,1.41-3.43,1.41
		C579.05,273.72,577.88,273.25,576.94,272.31z M584.21,278.64v37.09h-7.67v-37.09H584.21z"/>
	<path class="st0" d="M641.05,279.85c2.31,1.21,4.12,3.01,5.42,5.38c1.3,2.38,1.95,5.25,1.95,8.62v21.88h-7.61v-20.73
		c0-3.32-0.83-5.87-2.49-7.64c-1.66-1.77-3.93-2.66-6.8-2.66c-2.87,0-5.15,0.89-6.83,2.66c-1.68,1.77-2.52,4.32-2.52,7.64v20.73
		h-7.67v-37.09h7.67v4.24c1.26-1.52,2.86-2.71,4.81-3.57c1.95-0.85,4.03-1.28,6.23-1.28C636.12,278.03,638.73,278.64,641.05,279.85z
		"/>
	<path class="st0" d="M687.32,284.9v20.53c0,1.39,0.32,2.39,0.98,3c0.65,0.61,1.76,0.91,3.33,0.91h4.71v6.39h-6.06
		c-3.46,0-6.1-0.81-7.94-2.42c-1.84-1.62-2.76-4.24-2.76-7.88V284.9h-4.38v-6.26h4.38v-9.22h7.74v9.22h9.02v6.26H687.32z"/>
</g>
<g>
	<path class="st1" d="M128.82,357.65v46.77h-7.67v-32.04l-14.27,32.04h-5.32l-14.33-32.04v32.04h-7.67v-46.77h8.28l16.42,36.68
		l16.35-36.68H128.82z"/>
	<path class="st1" d="M169.47,375.21c-0.94-0.94-1.41-2.11-1.41-3.5c0-1.39,0.47-2.56,1.41-3.5c0.94-0.94,2.11-1.41,3.5-1.41
		c1.35,0,2.49,0.47,3.43,1.41c0.94,0.94,1.41,2.11,1.41,3.5c0,1.39-0.47,2.56-1.41,3.5c-0.94,0.94-2.09,1.41-3.43,1.41
		C171.58,376.62,170.41,376.15,169.47,375.21z M169.47,403.48c-0.94-0.94-1.41-2.11-1.41-3.5c0-1.39,0.47-2.56,1.41-3.5
		c0.94-0.94,2.11-1.41,3.5-1.41c1.35,0,2.49,0.47,3.43,1.41c0.94,0.94,1.41,2.11,1.41,3.5c0,1.39-0.47,2.56-1.41,3.5
		c-0.94,0.94-2.09,1.41-3.43,1.41C171.58,404.89,170.41,404.42,169.47,403.48z"/>
	<path class="st1" d="M228.76,396.21c1.48,1.17,3.48,1.75,5.99,1.75c3.19,0,5.52-1.26,7-3.77c1.48-2.51,2.22-6.8,2.22-12.86
		c-1.08,1.53-2.59,2.7-4.54,3.53s-4.07,1.25-6.36,1.25c-2.92,0-5.56-0.59-7.94-1.78c-2.38-1.19-4.25-2.96-5.62-5.32
		c-1.37-2.36-2.05-5.22-2.05-8.58c0-4.94,1.45-8.87,4.34-11.81c2.89-2.94,6.88-4.41,11.95-4.41c6.1,0,10.44,2.03,13.02,6.09
		c2.58,4.06,3.87,10.29,3.87,18.68c0,5.79-0.48,10.52-1.45,14.2c-0.97,3.68-2.64,6.46-5.01,8.35c-2.38,1.88-5.68,2.83-9.89,2.83
		c-4.8,0-8.5-1.26-11.1-3.77c-2.6-2.51-4.06-5.68-4.37-9.49h7.07C226.32,393.34,227.28,395.04,228.76,396.21z M240.78,377.13
		c1.55-1.68,2.32-3.91,2.32-6.7c0-3.1-0.82-5.51-2.46-7.24c-1.64-1.73-3.87-2.59-6.7-2.59c-2.83,0-5.06,0.89-6.7,2.66
		c-1.64,1.77-2.46,4.09-2.46,6.97c0,2.74,0.8,4.99,2.39,6.76c1.59,1.77,4,2.66,7.23,2.66C237.11,379.65,239.23,378.81,240.78,377.13
		z"/>
	<path class="st1" d="M267.06,367.74c0-2.42,0.61-4.64,1.82-6.66c1.21-2.02,3.03-3.62,5.45-4.81c2.42-1.19,5.38-1.78,8.88-1.78
		c3.45,0,6.4,0.59,8.85,1.78c2.44,1.19,4.27,2.79,5.49,4.81c1.21,2.02,1.82,4.24,1.82,6.66c0,2.51-0.64,4.72-1.92,6.63
		s-2.97,3.38-5.08,4.41c2.56,0.94,4.58,2.48,6.06,4.61c1.48,2.13,2.22,4.63,2.22,7.5c0,2.92-0.74,5.5-2.22,7.74
		c-1.48,2.24-3.54,3.97-6.19,5.18c-2.65,1.21-5.65,1.82-9.02,1.82s-6.36-0.61-8.98-1.82c-2.62-1.21-4.68-2.94-6.16-5.18
		c-1.48-2.24-2.22-4.82-2.22-7.74c0-2.92,0.74-5.43,2.22-7.54c1.48-2.11,3.48-3.63,5.99-4.58
		C269.39,376.45,267.06,372.77,267.06,367.74z M275.98,384.33c-1.86,1.46-2.79,3.56-2.79,6.29c0,2.56,0.9,4.63,2.69,6.23
		c1.79,1.59,4.24,2.39,7.34,2.39c3.05,0,5.46-0.81,7.23-2.42c1.77-1.62,2.66-3.68,2.66-6.19c0-2.69-0.91-4.78-2.73-6.26
		c-1.82-1.48-4.21-2.22-7.17-2.22S277.84,382.87,275.98,384.33z M289.67,362.89c-1.57-1.35-3.72-2.02-6.46-2.02
		c-2.69,0-4.82,0.67-6.39,2.02c-1.57,1.35-2.36,3.3-2.36,5.86c0,2.24,0.82,4.07,2.46,5.49c1.64,1.41,3.73,2.12,6.29,2.12
		s4.67-0.72,6.33-2.15c1.66-1.44,2.49-3.27,2.49-5.52C292.03,366.17,291.24,364.24,289.67,362.89z"/>
	<path class="st1" d="M319.38,361.04c2.62-4.38,7.14-6.56,13.56-6.56c6.42,0,10.94,2.19,13.56,6.56c2.62,4.38,3.94,10.44,3.94,18.21
		c0,7.85-1.31,13.99-3.94,18.41c-2.62,4.42-7.15,6.63-13.56,6.63c-6.42,0-10.94-2.21-13.56-6.63c-2.62-4.42-3.94-10.55-3.94-18.41
		C315.45,371.49,316.76,365.42,319.38,361.04z M342.2,370.03c-0.47-2.51-1.42-4.56-2.86-6.16c-1.44-1.59-3.57-2.39-6.39-2.39
		s-4.96,0.8-6.39,2.39c-1.44,1.59-2.39,3.65-2.86,6.16c-0.47,2.51-0.71,5.59-0.71,9.22c0,3.77,0.22,6.93,0.67,9.49
		c0.45,2.56,1.4,4.62,2.86,6.19c1.46,1.57,3.6,2.36,6.43,2.36s4.97-0.79,6.43-2.36c1.46-1.57,2.41-3.63,2.86-6.19
		c0.45-2.56,0.67-5.72,0.67-9.49C342.91,375.62,342.67,372.54,342.2,370.03z"/>
	<path class="st1" d="M389.01,362.09c-1.3-1.03-3.12-1.55-5.45-1.55c-3.54,0-6.19,1.36-7.94,4.07c-1.75,2.71-2.67,7.21-2.76,13.49
		c1.17-1.97,2.87-3.5,5.12-4.58c2.24-1.08,4.67-1.62,7.27-1.62c2.96,0,5.57,0.64,7.84,1.92c2.26,1.28,4.04,3.13,5.32,5.55
		s1.92,5.32,1.92,8.68c0,3.14-0.62,5.95-1.85,8.41c-1.23,2.47-3.06,4.41-5.49,5.82s-5.34,2.12-8.75,2.12
		c-4.62,0-8.24-1.02-10.87-3.06c-2.62-2.04-4.46-4.92-5.52-8.65c-1.05-3.72-1.58-8.37-1.58-13.93c0-16.42,5.79-24.63,17.36-24.63
		c4.49,0,8.02,1.21,10.6,3.63s4.09,5.41,4.54,8.95h-7.07C391.2,364.67,390.31,363.12,389.01,362.09z M376.59,380.83
		c-1.91,1.64-2.86,4-2.86,7.1c0,3.1,0.89,5.55,2.66,7.37c1.77,1.82,4.25,2.73,7.44,2.73c2.83,0,5.06-0.88,6.7-2.62
		c1.64-1.75,2.46-4.08,2.46-7c0-3.05-0.8-5.49-2.39-7.3c-1.59-1.82-3.94-2.73-7.03-2.73C380.82,378.37,378.5,379.19,376.59,380.83z"
		/>
	<path class="st1" d="M446.35,361.28l-18.71,43.14h-7.74l18.91-42.33h-24.9v-6.53h32.44V361.28z"/>
	<path class="st1" d="M463.61,361.04c2.62-4.38,7.14-6.56,13.56-6.56s10.94,2.19,13.56,6.56s3.94,10.44,3.94,18.21
		c0,7.85-1.31,13.99-3.94,18.41c-2.62,4.42-7.15,6.63-13.56,6.63s-10.94-2.21-13.56-6.63c-2.62-4.42-3.94-10.55-3.94-18.41
		C459.67,371.49,460.98,365.42,463.61,361.04z M486.43,370.03c-0.47-2.51-1.43-4.56-2.86-6.16c-1.44-1.59-3.57-2.39-6.39-2.39
		c-2.83,0-4.96,0.8-6.39,2.39c-1.44,1.59-2.39,3.65-2.86,6.16c-0.47,2.51-0.71,5.59-0.71,9.22c0,3.77,0.22,6.93,0.67,9.49
		c0.45,2.56,1.4,4.62,2.86,6.19c1.46,1.57,3.6,2.36,6.43,2.36c2.83,0,4.97-0.79,6.43-2.36c1.46-1.57,2.41-3.63,2.86-6.19
		c0.45-2.56,0.67-5.72,0.67-9.49C487.13,375.62,486.9,372.54,486.43,370.03z"/>
	<path class="st1" d="M508.53,362.36v-7h14v49.06h-7.74v-42.06H508.53z"/>
	<path class="st1" d="M543.77,361.04c2.62-4.38,7.14-6.56,13.56-6.56s10.94,2.19,13.56,6.56s3.94,10.44,3.94,18.21
		c0,7.85-1.31,13.99-3.94,18.41c-2.62,4.42-7.15,6.63-13.56,6.63s-10.94-2.21-13.56-6.63c-2.62-4.42-3.94-10.55-3.94-18.41
		C539.83,371.49,541.14,365.42,543.77,361.04z M566.58,370.03c-0.47-2.51-1.43-4.56-2.86-6.16c-1.44-1.59-3.57-2.39-6.39-2.39
		c-2.83,0-4.96,0.8-6.39,2.39c-1.44,1.59-2.39,3.65-2.86,6.16c-0.47,2.51-0.71,5.59-0.71,9.22c0,3.77,0.22,6.93,0.67,9.49
		c0.45,2.56,1.4,4.62,2.86,6.19c1.46,1.57,3.6,2.36,6.43,2.36c2.83,0,4.97-0.79,6.43-2.36c1.46-1.57,2.41-3.63,2.86-6.19
		c0.45-2.56,0.67-5.72,0.67-9.49C567.29,375.62,567.05,372.54,566.58,370.03z"/>
	<path class="st1" d="M620.79,361.28l-18.71,43.14h-7.74l18.91-42.33h-24.9v-6.53h32.44V361.28z"/>
	<path class="st1" d="M665.21,361.28l-18.71,43.14h-7.74l18.91-42.33h-24.9v-6.53h32.44V361.28z"/>
</g>
<g>
	<path class="st0" d="M129.4,243.74v12.77l-59.76,38.43h59.76v12.77H49.25v-12.77l59.65-38.43H49.25v-12.77H129.4z"/>
	<path class="st0" d="M102.57,170.79v47.17c5.07-0.37,9.14-2.2,12.21-5.49c3.07-3.29,4.61-7.32,4.61-12.1
		c0-6.87-2.95-11.73-8.87-14.57v-13.78c5.83,1.87,10.61,5.25,14.34,10.14c3.72,4.89,5.58,10.96,5.58,18.21
		c0,5.9-1.36,11.19-4.09,15.86c-2.72,4.67-6.56,8.33-11.52,10.98c-4.95,2.65-10.69,3.98-17.22,3.98c-6.52,0-12.26-1.29-17.21-3.87
		c-4.95-2.58-8.77-6.2-11.46-10.87c-2.69-4.67-4.03-10.03-4.03-16.08c0-5.83,1.31-11.02,3.92-15.58c2.61-4.56,6.28-8.1,11-10.65
		c4.72-2.54,10.15-3.81,16.29-3.81C98.5,170.34,100.65,170.49,102.57,170.79z M91.97,183.68c-4.84,0.08-8.71,1.76-11.63,5.04
		c-2.92,3.29-4.38,7.36-4.38,12.21c0,4.41,1.44,8.18,4.32,11.32c2.88,3.14,6.78,5.01,11.69,5.6V183.68z"/>
	<path class="st0" d="M65.95,74.87l63.45,19.16v13.45l-46.87,12.44l46.87,12.44v13.45l-63.45,19.27v-13l51.01-12.89l-51.01-13.11
		v-13.33l50.78-12.55L65.95,87.42V74.87z"/>
</g>
<g>
	<path class="st2" d="M404.37,86.91l4.58-0.15l1.99,2.45l-4.11,0.13c-0.71,0.02-1.27,0.62-1.25,1.33c0.02,0.71,0.62,1.27,1.33,1.25
		l6.07-0.19l1.49,1.84l-1.71,5.09l-2.3,0.56l-4.73-3.82c-0.12-0.1-0.26-0.17-0.4-0.22c-0.5-0.17-1.06-0.02-1.41,0.41
		c-0.45,0.55-0.36,1.36,0.19,1.81l3.2,2.58l-3.07,0.75l-3.55-2.89c-0.12-0.1-0.26-0.17-0.4-0.22c-0.49-0.17-1.06-0.02-1.41,0.41
		c-0.45,0.55-0.36,1.36,0.19,1.81l3.29,2.68l-1.69,3.89c-0.28,0.65,0.02,1.41,0.67,1.69c0.66,0.29,1.41-0.02,1.69-0.67l1.82-4.2
		l3.07-0.75l-1.65,3.77c-0.28,0.65,0.01,1.41,0.66,1.69c0.65,0.28,1.41-0.01,1.69-0.66l2.43-5.57l2.38-0.58l3.53,4l-0.58,1.71
		l-5.75,1.95c-0.67,0.23-1.03,0.96-0.81,1.63c0.23,0.67,0.96,1.03,1.63,0.81l3.89-1.32l-1.01,3l-4.34,1.46
		c-0.67,0.23-1.04,0.96-0.81,1.63c0.23,0.67,0.96,1.04,1.63,0.81l4.02-1.35l2.39,3.51c0.4,0.59,1.2,0.74,1.79,0.34
		c0.59-0.4,0.74-1.2,0.34-1.79l-2.58-3.78l1.01-3l2.3,3.41c0.4,0.59,1.2,0.74,1.79,0.34c0.59-0.4,0.74-1.2,0.34-1.79l-3.4-5.03
		l0.58-1.71l5.14-1.04l1.49,1.84l-1.43,5.91c-0.17,0.69,0.26,1.39,0.95,1.55c0.69,0.17,1.39-0.26,1.55-0.95l0.97-4l1.99,2.45
		l-1.09,4.45c-0.17,0.69,0.25,1.39,0.94,1.56c0.69,0.17,1.39-0.25,1.56-0.94l1.01-4.12l4.24-0.14c0.71-0.02,1.27-0.62,1.24-1.33
		c-0.02-0.55-0.38-1.01-0.88-1.18c-0.14-0.05-0.3-0.07-0.45-0.07l-4.58,0.15l-1.99-2.45l4.11-0.13c0.71-0.02,1.27-0.62,1.25-1.33
		c-0.02-0.55-0.38-1.01-0.88-1.18c-0.14-0.05-0.29-0.07-0.45-0.07l-6.07,0.19l-1.38-1.7l1.77-5.26l2.13-0.52l4.73,3.82
		c0.55,0.45,1.36,0.36,1.81-0.19c0.45-0.55,0.36-1.36-0.19-1.81l-3.2-2.58l3.07-0.75l3.55,2.89c0.55,0.45,1.36,0.36,1.81-0.19
		c0.45-0.55,0.36-1.36-0.19-1.81l-3.29-2.68l1.69-3.89c0.28-0.65-0.02-1.41-0.67-1.69c-0.03-0.01-0.07-0.03-0.1-0.04
		c-0.63-0.21-1.32,0.09-1.59,0.71l-1.82,4.2l-3.07,0.75l1.65-3.77c0.28-0.65-0.01-1.41-0.66-1.69c-0.04-0.02-0.07-0.03-0.11-0.04
		c-0.63-0.21-1.32,0.09-1.59,0.71l-2.43,5.57l-1.79,0.44l-3.81-4.32l0.62-1.84l5.75-1.95c0.67-0.23,1.03-0.96,0.81-1.63
		c-0.13-0.4-0.44-0.68-0.81-0.81c-0.26-0.09-0.55-0.09-0.82,0l-3.89,1.32l1.01-3l4.34-1.46c0.67-0.23,1.04-0.96,0.81-1.63
		c-0.13-0.4-0.44-0.69-0.81-0.81c-0.26-0.09-0.54-0.09-0.82,0l-4.02,1.35l-2.39-3.51c-0.16-0.24-0.4-0.41-0.65-0.5
		c-0.37-0.12-0.79-0.08-1.14,0.16c-0.59,0.4-0.74,1.2-0.34,1.79l2.58,3.78l-1.01,3l-2.3-3.41c-0.16-0.24-0.4-0.41-0.65-0.5
		c-0.37-0.12-0.79-0.08-1.13,0.15c-0.59,0.4-0.74,1.2-0.34,1.79l3.4,5.03l-0.62,1.84l-5.73,1.16l-1.22-1.5l1.43-5.91
		c0.16-0.65-0.21-1.31-0.84-1.52c-0.04-0.01-0.07-0.02-0.11-0.03c-0.69-0.17-1.39,0.26-1.55,0.95l-0.97,4l-1.99-2.45l1.09-4.45
		c0.16-0.65-0.21-1.31-0.84-1.53c-0.03-0.01-0.07-0.02-0.11-0.03c-0.69-0.17-1.39,0.25-1.56,0.94l-1.01,4.12l-4.24,0.14
		c-0.71,0.02-1.27,0.62-1.24,1.33C403.06,86.37,403.66,86.93,404.37,86.91z M424.32,102.33l-5.41,1.09l-3.65-4.14l1.76-5.23
		l5.41-1.09l3.65,4.14L424.32,102.33z"/>
	<path class="st3" d="M423.2,126.91c9.8,0,14.59,4.79,14.59,14.59V247.5h-30.32v-120.6H423.2z"/>
	<path class="st3" d="M553.78,247.75c-30.32-0.95-45.49-18.57-45.49-52.69s15.35-51.17,45.86-51.36c31.84,0,46.81,19.52,44.92,58.75
		h-64.82c0.95,15.35,7.58,23.12,19.9,23.12c5.87,0,11.37-2.46,16.3-7.2c2.27-2.46,5.12-3.6,8.53-3.6h18.57
		C592.06,236,578.42,247.75,553.78,247.75z M534.64,184.45h37.71c-1.52-13.27-7.77-20.09-18.57-20.09
		C542.98,164.36,536.53,171.18,534.64,184.45z"/>
	<path class="st3" d="M655.54,247.75c-30.32-0.95-45.49-18.57-45.49-52.69s15.35-51.17,45.86-51.36c31.84,0,46.81,19.52,44.92,58.75
		h-64.82c0.95,15.35,7.58,23.12,19.9,23.12c5.87,0,11.37-2.46,16.3-7.2c2.27-2.46,5.12-3.6,8.53-3.6h18.57
		C693.83,236,680.18,247.75,655.54,247.75z M636.4,184.45h37.71c-1.52-13.27-7.77-20.09-18.57-20.09
		C644.74,164.36,638.3,171.18,636.4,184.45z"/>
	<path class="st3" d="M490.09,91.6c-0.75-0.01-1.5-0.03-2.27-0.03c-22.57,0-36.02,9.12-34.88,32.14V247.5h30.32v-90.73h4.1
		c0.17,0,0.34-0.02,0.51-0.03h11.57c11.6,0,21-9.4,21-21v-1.41H484.9v0.1h-2.1v-7.98c0.66-5.69,4.27-8.65,10.82-8.87h14.74
		c13.45,0,24.35-10.9,24.35-24.35V91.6H490.09z"/>
	<path class="st3" d="M345.29,125.08c-27.81,0-43.54,10.94-47.19,33.28h14.48c7.08,0,14.08-1.84,20.09-5.58
		c3.08-1.92,7.71-2.86,13.98-2.86c12.54,0,18.92,3.42,19.61,10.26c0,6.61-6.61,10.49-19.61,12.08
		c-30.55,2.96-51.52,10.71-52.21,39.67c0,26.67,20.06,40.12,49.01,37.84c32.6-2.28,52.66-17.1,52.66-50.38v-41.03
		C395.45,136.03,378.57,125.08,345.29,125.08z M356.49,217.62c-7.94,9.37-20.21,12.53-28.88,4.58c-10.33-9.48-1.63-27.8,11.98-25.64
		c16.05,2.56,24.32-11.26,24.32-11.26S364.08,208.65,356.49,217.62z"/>
	<path class="st2" d="M225.48,192.28l3.7,1.24c-0.68-1.62-1.54-3.17-2.55-4.66c-0.66-0.99-1.38-1.95-2.14-2.89l-2.15,1.45
		l-2.59-0.87l-1.4-6.92c-1.02-0.93-2.07-1.83-3.1-2.7c-0.6-0.49-1.19-0.98-1.79-1.47l-5.19-1.75l-0.78-3.18
		c-1.57-1.31-3.13-2.62-4.68-3.97l0.09,0.38l-5.28-2.3c-0.91-0.4-1.97,0.01-2.37,0.93c-0.4,0.91,0.02,1.97,0.93,2.37l7.79,3.41
		l0.82,3.33l-5.6,4.94l-2.4-0.8l-2.74-8.06c-0.31-0.95-1.34-1.45-2.28-1.13c-0.95,0.31-1.45,1.34-1.13,2.29l1.85,5.44l-4.2-1.41
		l-2.04-6.07c-0.32-0.95-1.35-1.45-2.29-1.14c-0.94,0.32-1.45,1.34-1.13,2.29l1.89,5.63l-4.91,3.33c-0.83,0.56-1.03,1.68-0.48,2.51
		c0.56,0.83,1.68,1.03,2.51,0.48l5.3-3.62l4.2,1.41l-4.78,3.23c-0.83,0.56-1.03,1.68-0.48,2.51c0.56,0.83,1.68,1.03,2.51,0.48
		l7.04-4.76l2.4,0.8l1.45,7.2l-2.57,2.09l-8.28-2c-0.96-0.23-1.93,0.37-2.17,1.33c-0.23,0.97,0.37,1.94,1.33,2.18l5.6,1.35
		l-3.44,2.79l-6.23-1.53c-0.96-0.23-1.94,0.36-2.17,1.33c-0.24,0.97,0.36,1.94,1.32,2.18l5.77,1.41l0.21,5.93
		c0.03,0.99,0.87,1.78,1.86,1.73c0.77-0.02,1.41-0.53,1.65-1.22c0.06-0.2,0.09-0.42,0.09-0.64l-0.22-6.41l3.44-2.79l0.18,5.76
		c0.03,0.99,0.86,1.78,1.85,1.75c0.78-0.03,1.42-0.53,1.66-1.23c0.06-0.2,0.09-0.41,0.09-0.63l-0.27-8.51l2.39-1.93l7.37,2.48
		l0.73,2.98l-5.35,6.62c-0.63,0.77-0.5,1.91,0.27,2.53c0.77,0.63,1.91,0.51,2.54-0.26l3.62-4.48l1.04,4.3l-4.04,4.97
		c-0.63,0.76-0.5,1.9,0.27,2.53c0.76,0.63,1.9,0.51,2.53-0.26l3.75-4.61l5.44,2.36c0.92,0.4,1.97-0.02,2.37-0.94
		c0.02-0.04,0.04-0.09,0.06-0.14c0.29-0.88-0.14-1.86-0.99-2.24l-5.88-2.54l-1.06-4.3l5.28,2.31c0.91,0.4,1.97-0.02,2.37-0.94
		c0.02-0.04,0.04-0.09,0.06-0.15c0.29-0.88-0.13-1.85-0.99-2.23l-7.79-3.41l-0.62-2.51l6.04-5.33l2.59,0.87l2.73,8.06
		c0.32,0.94,1.35,1.44,2.29,1.13c0.55-0.19,0.96-0.62,1.13-1.14c0.13-0.36,0.14-0.76,0-1.15L225.48,192.28z M210.42,192.37
		l-7.32-2.46l-1.54-7.58l5.8-5.12l7.32,2.47l1.53,7.58L210.42,192.37z"/>
	<path class="st1" d="M230.08,197.68c-0.05,0.37-0.2,0.61-0.49,0.38c-0.22-0.24-0.19-0.92,0.17-0.75
		C229.88,197.37,229.99,197.51,230.08,197.68z"/>
	<path class="st3" d="M271.59,109.93c-2.62-6.68-7.27-12.47-12.9-16.72c-13.08-9.62-32.3-10.85-45.63-1.47
		c-6.43,4.36-11.88,12.92-10.9,19.97c0.19,2.27,0.66,4.73,1.53,6.77c3.27,7.33,9.09,10.85,16.97,15.55
		c4.88,2.78,10.89,5.74,16.07,8.29c9.93,5.18,21.18,10.75,30.39,19.09c14.15,12.63,19.87,32.03,13.55,50.07
		c-4.4,12.98-13.16,24.38-24.73,31.66c-12.74,8.22-29.24,10.47-43.63,6.73c-9.03-2.08-17.67-6.59-24.21-13.14
		c-8.71-8.66-14.3-20.5-15.21-32.72c2.51,2.91,5.18,5.49,7.92,7.83c12.3,10.53,26.12,15.1,41.67,9.21
		c9.62-3.81,15.35-12.28,15.38-22.03c-0.06-0.76-0.14-1.47-0.3-2.16c-0.22-1.7-0.5-3.39-1.25-5.13
		c-3.85-8.73-11.84-15.57-20.03-21.71c-15.4-11.83-33.19-25.38-36.43-45.92c-1.15-7.39-0.66-15.11,1.93-22.07
		c5.62-15.13,20.57-25.56,36.19-27.74C241.52,70.69,267.68,85.68,271.59,109.93L271.59,109.93z"/>
	<path class="st2" d="M153.66,155.23c-2.71-30.33,5.99-57.53,32.7-74.01c-12.07,14.98-17.09,32.67-12.55,51.3
		c1.34,5.63,3.36,11.1,5.71,16.41c3.02,6.83-0.07,14.81-6.9,17.83C164.24,170.66,154.06,164.41,153.66,155.23L153.66,155.23z"/>
</g>
</svg>
